<svg width="36" height="37" viewBox="0 0 36 37" fill="none" xmlns="http://www.w3.org/2000/svg">
<g clip-path="url(#clip0_29_83)">
<path d="M0 0.5H36V36.5H0V0.5Z" fill="#C4162E"/>
<path d="M4.79995 24.5C7.41595 24.5 9.59995 22.128 9.59995 19.7C9.59995 17.514 9.38395 14.9 7.19995 14.9C6.04195 14.9 2.87995 16.52 2.39995 17.3L4.79995 12.5H9.59995H2.39995V17.3C2.53995 17.06 4.57795 17.476 4.79995 17.3C4.20195 17.3 5.19395 16.986 4.79995 17.3C6.04595 17.3 7.19195 18.48 7.19995 19.7C7.19995 20.936 6.06195 22.1 4.79995 22.1C3.68995 22.1 2.57395 20.576 2.39995 19.7C2.53195 21.638 2.30195 24.5 4.79995 24.5ZM14.3999 24.5C17.2519 24.5 19.1999 20.99 19.1999 17.3C19.1999 13.61 17.2519 12.5 14.3999 12.5C11.5399 12.5 9.59995 13.612 9.59995 17.3C9.59995 20.99 11.5379 24.5 14.3999 24.5ZM14.3999 22.1C13.0039 22.1 11.9999 19.848 11.9999 17.3C11.9999 14.752 13.0039 12.5 14.3999 12.5C15.7859 12.5 16.7999 14.752 16.7999 17.3C16.7999 19.848 15.7859 22.1 14.3999 22.1ZM23.9999 24.5C26.8519 24.5 28.7999 20.99 28.7999 17.3C28.7999 13.61 26.8519 12.5 23.9999 12.5C21.1399 12.5 19.1999 13.612 19.1999 17.3C19.1999 20.99 21.1399 24.5 23.9999 24.5ZM23.9999 22.1C22.6039 22.1 21.5999 19.848 21.5999 17.3C21.5999 14.752 22.6039 12.5 23.9999 12.5C25.3859 12.5 26.3999 14.752 26.3999 17.3C26.3999 19.848 25.3859 22.1 23.9999 22.1Z" fill="white"/>
</g>
<defs>
<clipPath id="clip0_29_83">
<path d="M0 18.5C0 8.55888 8.05888 0.5 18 0.5C27.9411 0.5 36 8.55888 36 18.5C36 28.4411 27.9411 36.5 18 36.5C8.05888 36.5 0 28.4411 0 18.5Z" fill="white"/>
</clipPath>
</defs>
</svg>
