<svg width="48" height="57" viewBox="0 0 48 57" fill="none" xmlns="http://www.w3.org/2000/svg">
<path d="M24 9.45761C26.1217 9.45761 28.1566 10.454 29.6569 12.2277C31.1571 14.0013 32 16.4069 32 18.9152C32 21.4236 31.1571 23.8291 29.6569 25.6028C28.1566 27.3764 26.1217 28.3729 24 28.3729C21.8783 28.3729 19.8434 27.3764 18.3431 25.6028C16.8429 23.8291 16 21.4236 16 18.9152C16 16.4069 16.8429 14.0013 18.3431 12.2277C19.8434 10.454 21.8783 9.45761 24 9.45761ZM24 33.1017C32.84 33.1017 40 37.334 40 42.5593V47.2881H8V42.5593C8 37.334 15.16 33.1017 24 33.1017Z" fill="#24FAE0"/>
</svg>
