<svg width="36" height="37" viewBox="0 0 36 37" fill="none" xmlns="http://www.w3.org/2000/svg">
<g clip-path="url(#clip0_29_93)">
<path d="M0 0.5H36V36.5H0V0.5Z" fill="#0091BA"/>
<path d="M4.79995 22.1H7.19995V12.5H4.79995H2.39995V14.9H4.79995V22.1ZM14.3999 24.5C17.3279 24.5 19.1999 20.99 19.1999 17.3C19.1999 13.61 17.3279 12.5 14.3999 12.5C11.4699 12.5 9.59995 13.612 9.59995 17.3C9.59995 20.99 11.4699 24.5 14.3999 24.5ZM14.3999 22.1C12.9599 22.1 11.9999 19.848 11.9999 17.3C11.9999 14.752 12.9599 12.5 14.3999 12.5C15.8399 12.5 16.7999 14.752 16.7999 17.3C16.7999 19.848 15.8399 22.1 14.3999 22.1ZM23.9999 24.5C26.9299 24.5 28.7999 20.99 28.7999 17.3C28.7999 13.61 26.9299 12.5 23.9999 12.5C21.0719 12.5 19.1999 13.612 19.1999 17.3C19.1999 20.99 21.0719 24.5 23.9999 24.5ZM23.9999 22.1C22.5599 22.1 21.5999 19.848 21.5999 17.3C21.5999 14.752 22.5599 12.5 23.9999 12.5C25.4399 12.5 26.3999 14.752 26.3999 17.3C26.3999 19.848 25.4419 22.1 23.9999 22.1Z" fill="white"/>
</g>
<defs>
<clipPath id="clip0_29_93">
<path d="M0 18.5C0 8.55888 8.05888 0.5 18 0.5C27.9411 0.5 36 8.55888 36 18.5C36 28.4411 27.9411 36.5 18 36.5C8.05888 36.5 0 28.4411 0 18.5Z" fill="white"/>
</clipPath>
</defs>
</svg>
